<svg xmlns="http://www.w3.org/2000/svg" width="2448" height="1056" viewBox="0 0 2448 1056"><defs>
<clipPath id="pagina"><rect width="816" height="1056"/></clipPath>
<filter id="borra" x="-10%" y="-10%" width="120%" height="120%"><feGaussianBlur stdDeviation="16"/></filter>
<mask id="mancha" maskUnits="userSpaceOnUse" x="0" y="0" width="816" height="1056">
<rect width="816" height="1056" fill="#fff"/>
<rect x="58" y="60" width="700" height="914" fill="#3a3a3a" filter="url(#borra)"/>
<rect x="430" y="982" width="360" height="46" fill="#555" filter="url(#borra)"/>
</mask></defs><g clip-path="url(#pagina)" transform="translate(0 0)"><g mask="url(#mancha)"><g transform="translate(760.0 96.0) rotate(157.9) scale(2.60)" fill-opacity="0.8" stroke-opacity="0.8"><circle r="46" fill="none" stroke="#000" stroke-width="5" stroke-dasharray="210 14 40 9"/></g><g transform="translate(837.4 324.2) rotate(339.0) scale(1.31)" fill-opacity="0.95" stroke-opacity="0.95"><circle r="18"/><circle r="12" fill="none" stroke="#fff" stroke-opacity="0"/></g><g transform="translate(806.1 288.1) rotate(53.9) scale(1.38)" fill-opacity="0.95" stroke-opacity="0.95"><circle r="18"/><circle r="12" fill="none" stroke="#fff" stroke-opacity="0"/></g><g transform="translate(796.8 237.8) rotate(228.0) scale(1.26)" fill-opacity="0.95" stroke-opacity="0.95"><circle r="18"/><circle r="12" fill="none" stroke="#fff" stroke-opacity="0"/></g><g transform="translate(839.7 244.0) rotate(57.0) scale(1.43)" fill-opacity="0.95" stroke-opacity="0.95"><circle r="18"/><circle r="12" fill="none" stroke="#fff" stroke-opacity="0"/></g><g transform="translate(749.4 247.0) rotate(262.2) scale(1.43)" fill-opacity="0.95" stroke-opacity="0.95"><circle r="18"/><circle r="12" fill="none" stroke="#fff" stroke-opacity="0"/></g><g transform="translate(70.0 1048.0) rotate(-3.0) scale(1.60)" fill-opacity="0.95" stroke-opacity="0.95"><path d="M0 0 C60 -40 120 30 180 -10 S300 -40 340 20" fill="none" stroke="#000" stroke-width="4" stroke-dasharray="12 10" stroke-linecap="round"/><path d="M332 8 l20 20 m0 -20 l-20 20" stroke="#000" stroke-width="6" stroke-linecap="round"/></g></g></g><g clip-path="url(#pagina)" transform="translate(816 0)"><g mask="url(#mancha)"><g transform="translate(300.0 1060.0) rotate(89.4) scale(2.40)" fill-opacity="0.8" stroke-opacity="0.8"><circle r="46" fill="none" stroke="#000" stroke-width="5" stroke-dasharray="210 14 40 9"/></g><g transform="translate(713.3 1051.2) rotate(243.4) scale(1.38)" fill-opacity="0.95" stroke-opacity="0.95"><circle r="18"/><circle r="12" fill="none" stroke="#fff" stroke-opacity="0"/></g><g transform="translate(705.6 1000.6) rotate(79.5) scale(1.17)" fill-opacity="0.95" stroke-opacity="0.95"><circle r="18"/><circle r="12" fill="none" stroke="#fff" stroke-opacity="0"/></g><g transform="translate(824.5 1016.5) rotate(42.1) scale(1.39)" fill-opacity="0.95" stroke-opacity="0.95"><circle r="18"/><circle r="12" fill="none" stroke="#fff" stroke-opacity="0"/></g><g transform="translate(787.5 1068.0) rotate(306.8) scale(1.44)" fill-opacity="0.95" stroke-opacity="0.95"><circle r="18"/><circle r="12" fill="none" stroke="#fff" stroke-opacity="0"/></g><g transform="translate(789.0 150.0) rotate(92.0) scale(1.40)" fill-opacity="0.95" stroke-opacity="0.95"><path d="M0 0 C60 -40 120 30 180 -10 S300 -40 340 20" fill="none" stroke="#000" stroke-width="4" stroke-dasharray="12 10" stroke-linecap="round"/><path d="M332 8 l20 20 m0 -20 l-20 20" stroke="#000" stroke-width="6" stroke-linecap="round"/></g></g></g><g clip-path="url(#pagina)" transform="translate(1632 0)"><g mask="url(#mancha)"><g transform="translate(794.4 600.0) rotate(241.3) scale(1.70)" fill-opacity="0.8" stroke-opacity="0.8"><circle r="46" fill="none" stroke="#000" stroke-width="5" stroke-dasharray="210 14 40 9"/></g><g transform="translate(772.8 759.8) rotate(301.8) scale(1.25)" fill-opacity="0.95" stroke-opacity="0.95"><circle r="18"/><circle r="12" fill="none" stroke="#fff" stroke-opacity="0"/></g><g transform="translate(790.3 252.8) rotate(219.9) scale(1.10)" fill-opacity="0.95" stroke-opacity="0.95"><circle r="18"/><circle r="12" fill="none" stroke="#fff" stroke-opacity="0"/></g><g transform="translate(770.9 298.7) rotate(277.6) scale(1.10)" fill-opacity="0.95" stroke-opacity="0.95"><circle r="18"/><circle r="12" fill="none" stroke="#fff" stroke-opacity="0"/></g><g transform="translate(793.4 213.8) rotate(279.7) scale(1.26)" fill-opacity="0.95" stroke-opacity="0.95"><circle r="18"/><circle r="12" fill="none" stroke="#fff" stroke-opacity="0"/></g></g></g></svg>