<svg xmlns="http://www.w3.org/2000/svg" width="2448" height="1056" viewBox="0 0 2448 1056"><defs>
<clipPath id="pagina"><rect width="816" height="1056"/></clipPath>
<filter id="borra" x="-10%" y="-10%" width="120%" height="120%"><feGaussianBlur stdDeviation="16"/></filter>
<mask id="mancha" maskUnits="userSpaceOnUse" x="0" y="0" width="816" height="1056">
<rect width="816" height="1056" fill="#fff"/>
<rect x="58" y="60" width="700" height="914" fill="#3a3a3a" filter="url(#borra)"/>
<rect x="430" y="982" width="360" height="46" fill="#555" filter="url(#borra)"/>
</mask></defs><g clip-path="url(#pagina)" transform="translate(0 0)"><g mask="url(#mancha)"><g transform="translate(260.0 28.0) rotate(-3.0) scale(2.20)" fill-opacity="0.95" stroke-opacity="0.95"><path d="M0 0 C90 -24 170 12 236 -12 C278 -28 268 -66 240 -60 C218 -55 222 -34 242 -36" fill="none" stroke="#000" stroke-width="6" stroke-linecap="round"/></g><g transform="translate(620.0 116.0) rotate(30.0) scale(1.80)" fill-opacity="0.95" stroke-opacity="0.95"><path d="M0 0 Q130 -70 300 -30 Q130 -52 0 0 Z"/></g><g transform="translate(806.6 323.0) rotate(118.5) scale(1.20)" fill-opacity="0.95" stroke-opacity="0.95"><path d="M0 -74 L6 -60 L6 -8 L-6 -8 L-6 -60 Z"/><rect x="-17" y="-8" width="34" height="6" rx="2"/><rect x="-3.5" y="-2" width="7" height="22"/><circle cy="24" r="5"/></g><g transform="translate(832.8 338.5) rotate(127.0) scale(1.20)" fill-opacity="0.95" stroke-opacity="0.95"><path d="M0 -74 L6 -60 L6 -8 L-6 -8 L-6 -60 Z"/><rect x="-17" y="-8" width="34" height="6" rx="2"/><rect x="-3.5" y="-2" width="7" height="22"/><circle cy="24" r="5"/></g><g transform="translate(787.8 534.2) rotate(121.0) scale(1.20)" fill-opacity="0.95" stroke-opacity="0.95"><path d="M0 -74 L6 -60 L6 -8 L-6 -8 L-6 -60 Z"/><rect x="-17" y="-8" width="34" height="6" rx="2"/><rect x="-3.5" y="-2" width="7" height="22"/><circle cy="24" r="5"/></g><g transform="translate(797.7 655.5) rotate(8.1) scale(1.20)" fill-opacity="0.95" stroke-opacity="0.95"><path d="M0 0 C60 -14 110 8 160 -6" fill="none" stroke="#000" stroke-width="4" stroke-linecap="round"/></g><g transform="translate(819.2 575.9) rotate(-9.9) scale(1.20)" fill-opacity="0.95" stroke-opacity="0.95"><path d="M0 0 C60 -14 110 8 160 -6" fill="none" stroke="#000" stroke-width="4" stroke-linecap="round"/></g><g transform="translate(825.9 235.7) rotate(-2.7) scale(1.20)" fill-opacity="0.95" stroke-opacity="0.95"><path d="M0 0 C60 -14 110 8 160 -6" fill="none" stroke="#000" stroke-width="4" stroke-linecap="round"/></g></g></g><g clip-path="url(#pagina)" transform="translate(816 0)"><g mask="url(#mancha)"><g transform="translate(120.0 1046.0) rotate(2.0) scale(2.20)" fill-opacity="0.95" stroke-opacity="0.95"><path d="M0 0 C90 -24 170 12 236 -12 C278 -28 268 -66 240 -60 C218 -55 222 -34 242 -36" fill="none" stroke="#000" stroke-width="6" stroke-linecap="round"/></g><g transform="translate(680.0 980.0) rotate(-30.0) scale(1.80)" fill-opacity="0.95" stroke-opacity="0.95"><path d="M0 0 Q130 -70 300 -30 Q130 -52 0 0 Z"/></g><g transform="translate(837.8 864.8) rotate(119.7) scale(1.20)" fill-opacity="0.95" stroke-opacity="0.95"><path d="M0 -74 L6 -60 L6 -8 L-6 -8 L-6 -60 Z"/><rect x="-17" y="-8" width="34" height="6" rx="2"/><rect x="-3.5" y="-2" width="7" height="22"/><circle cy="24" r="5"/></g><g transform="translate(823.7 702.5) rotate(119.8) scale(1.20)" fill-opacity="0.95" stroke-opacity="0.95"><path d="M0 -74 L6 -60 L6 -8 L-6 -8 L-6 -60 Z"/><rect x="-17" y="-8" width="34" height="6" rx="2"/><rect x="-3.5" y="-2" width="7" height="22"/><circle cy="24" r="5"/></g><g transform="translate(800.8 546.3) rotate(122.5) scale(1.20)" fill-opacity="0.95" stroke-opacity="0.95"><path d="M0 -74 L6 -60 L6 -8 L-6 -8 L-6 -60 Z"/><rect x="-17" y="-8" width="34" height="6" rx="2"/><rect x="-3.5" y="-2" width="7" height="22"/><circle cy="24" r="5"/></g><g transform="translate(798.0 359.1) rotate(2.1) scale(1.20)" fill-opacity="0.95" stroke-opacity="0.95"><path d="M0 0 C60 -14 110 8 160 -6" fill="none" stroke="#000" stroke-width="4" stroke-linecap="round"/></g><g transform="translate(816.1 331.7) rotate(-6.6) scale(1.20)" fill-opacity="0.95" stroke-opacity="0.95"><path d="M0 0 C60 -14 110 8 160 -6" fill="none" stroke="#000" stroke-width="4" stroke-linecap="round"/></g><g transform="translate(805.6 606.9) rotate(-4.2) scale(1.20)" fill-opacity="0.95" stroke-opacity="0.95"><path d="M0 0 C60 -14 110 8 160 -6" fill="none" stroke="#000" stroke-width="4" stroke-linecap="round"/></g></g></g><g clip-path="url(#pagina)" transform="translate(1632 0)"><g mask="url(#mancha)"><g transform="translate(460.0 22.0) rotate(-2.0) scale(1.50)" fill-opacity="0.95" stroke-opacity="0.95"><path d="M0 0 C90 -24 170 12 236 -12 C278 -28 268 -66 240 -60 C218 -55 222 -34 242 -36" fill="none" stroke="#000" stroke-width="6" stroke-linecap="round"/></g><g transform="translate(826.7 740.2) rotate(120.3) scale(1.20)" fill-opacity="0.95" stroke-opacity="0.95"><path d="M0 -74 L6 -60 L6 -8 L-6 -8 L-6 -60 Z"/><rect x="-17" y="-8" width="34" height="6" rx="2"/><rect x="-3.5" y="-2" width="7" height="22"/><circle cy="24" r="5"/></g><g transform="translate(776.8 623.7) rotate(123.6) scale(1.20)" fill-opacity="0.95" stroke-opacity="0.95"><path d="M0 -74 L6 -60 L6 -8 L-6 -8 L-6 -60 Z"/><rect x="-17" y="-8" width="34" height="6" rx="2"/><rect x="-3.5" y="-2" width="7" height="22"/><circle cy="24" r="5"/></g><g transform="translate(791.3 655.2) rotate(117.1) scale(1.20)" fill-opacity="0.95" stroke-opacity="0.95"><path d="M0 -74 L6 -60 L6 -8 L-6 -8 L-6 -60 Z"/><rect x="-17" y="-8" width="34" height="6" rx="2"/><rect x="-3.5" y="-2" width="7" height="22"/><circle cy="24" r="5"/></g><g transform="translate(839.0 290.6) rotate(0.4) scale(1.20)" fill-opacity="0.95" stroke-opacity="0.95"><path d="M0 0 C60 -14 110 8 160 -6" fill="none" stroke="#000" stroke-width="4" stroke-linecap="round"/></g><g transform="translate(813.2 677.3) rotate(7.8) scale(1.20)" fill-opacity="0.95" stroke-opacity="0.95"><path d="M0 0 C60 -14 110 8 160 -6" fill="none" stroke="#000" stroke-width="4" stroke-linecap="round"/></g><g transform="translate(834.9 760.1) rotate(-1.5) scale(1.20)" fill-opacity="0.95" stroke-opacity="0.95"><path d="M0 0 C60 -14 110 8 160 -6" fill="none" stroke="#000" stroke-width="4" stroke-linecap="round"/></g></g></g></svg>